<svg width="55" height="55" xmlns="http://www.w3.org/2000/svg"><defs><linearGradient x1="-30%" y1="25%" x2="78.537%" y2="115.447%" id="a"><stop stop-opacity=".1" offset="0%"/><stop stop-opacity="0" offset="100%"/></linearGradient><linearGradient x1="-.006%" y1="49.998%" y2="49.998%" id="b"><stop stop-color="#FFF" offset="0%"/><stop offset="100%"/></linearGradient><linearGradient x1="-7.697%" y1="27.375%" x2="98.386%" y2="76.843%" id="c"><stop stop-color="#FFF" stop-opacity=".2" offset="0%"/><stop stop-color="#FFF" stop-opacity="0" offset="100%"/></linearGradient></defs><g fill="none" fill-rule="evenodd"><path d="M53.854 13.75H30.938a1.145 1.145 0 1 0 0 2.292v22.916a1.145 1.145 0 1 0 0 2.292h22.916c.634 0 1.146-.512 1.146-1.146V18.955l-.09-2.895.09-1.164c0-.634-.512-1.146-1.146-1.146z" fill="#0076BE"/><path d="M53.854 40.677H30.938c-.532 0-.959-.369-1.089-.86-.024.095-.057.185-.057.287 0 .634.512 1.146 1.145 1.146h22.917c.634 0 1.146-.512 1.146-1.146v-.573c0 .634-.512 1.146-1.146 1.146z" fill="#000" opacity=".1"/><path d="M55 14.896c0-.107-.033-.204-.061-.303l-16.01 13.008-6.944-5.341c-.312-.242-.682-.33-1.047-.33v3.86l6.973 5.363a1.71 1.71 0 0 0 2.13-.028L55 18.972v-4.076z" fill="#FFF"/><path d="M53.854 13.75H30.938c-.634 0-1.146.512-1.146 1.146 0 .102.033.192.057.286.13-.49.557-.86 1.088-.86h22.917c.634 0 1.146.513 1.146 1.147v-.573c0-.634-.512-1.146-1.146-1.146z" fill="#FFF" opacity=".2"/><path fill="#0076BE" d="M32.083 0L0 5.978v43.044L32.083 55z"/><path fill="#FFF" opacity=".2" d="M0 5.978v.573L32.083.573V0z"/><path fill="#000" opacity=".1" d="M0 49.022L32.083 55v-.573L0 48.45z"/><path d="M14.896 39.531c-4.818 0-8.594-5.285-8.594-12.031s3.776-12.031 8.594-12.031S23.49 20.754 23.49 27.5s-3.776 12.031-8.594 12.031zm0-20.625c-2.795 0-5.156 3.936-5.156 8.594 0 4.658 2.36 8.594 5.156 8.594 2.795 0 5.156-3.936 5.156-8.594 0-4.658-2.361-8.594-5.156-8.594z" fill="#FFF" fill-rule="nonzero"/><path d="M53.854 41.25c.634 0 1.146-.512 1.146-1.146v-3.437L32.083 13.75v27.5h21.771z" fill="url(#a)"/><path fill="url(#b)" opacity=".05" d="M32.083 0L0 5.978v43.044L32.083 55z"/><path d="M55 14.896c0-.634-.512-1.146-1.146-1.146h-21.77V0L0 5.978v43.044L32.083 55V41.25h21.771c.634 0 1.146-.512 1.146-1.146V14.896z" fill="url(#c)"/></g></svg>